<svg xmlns="http://www.w3.org/2000/svg" width="55" height="70" viewBox="0 0 55 70" fill="none"><path d="M17.5255 56.5938C17.6071 56.703 17.6792 57.0304 18.1128 57.1465C19.6741 57.5697 21.2359 57.6323 22.7565 57.0814C25.4859 56.9498 27.6912 55.1512 28.4475 52.9212C29.5748 52.6214 30.3359 51.0802 29.9957 49.7758C29.7817 48.9548 30.0309 48.9791 30.2751 48.712C31.6265 47.2339 30.8968 45.1581 30.0443 45.3387C30.9421 44.565 31.3242 43.1356 30.4893 41.893C31.2261 41.4577 31.8936 40.8524 32.0746 40.3562C32.8238 38.3033 32.4071 36.0929 33.368 33.9528C34.2875 31.9047 35.7468 30.1455 36.933 28.2542C40.0534 23.2789 40.5229 16.9608 38.1821 11.5426C36.7589 8.24813 34.7432 5.05787 31.6611 3.22317C28.631 1.41925 26.0947 0.556609 22.2712 0.103853C16.31 -0.598776 10.0044 2.31272 6.58054 7.35656C3.10566 12.4759 2.65443 19.5978 5.45803 25.0807C7.6861 29.4379 10.4213 31.0966 10.8123 36.3716C11.1787 41.3057 12.654 40.995 13.2964 42.0118C12.7056 43.249 12.4918 44.6028 13.2927 45.7152C12.5324 46.8373 12.5782 48.3088 13.3209 49.3687C12.9281 50.5849 13.3335 51.9125 14.2404 52.597C15.5338 54.3495 16.7987 55.8953 17.5255 56.5938ZM14.758 44.9063C14.5173 44.7298 14.377 44.3227 14.4083 43.8933C14.4633 43.1331 14.9288 42.4821 15.0009 42.2233C18.3371 42.7644 22.6581 42.6857 26.0926 42.2733C26.3578 42.7272 26.606 43.214 26.6655 43.7104C26.7166 44.1378 26.5948 44.5523 26.3615 44.7426C25.9876 45.0466 25.8702 45.8581 26.3429 46.234C26.8848 46.6659 27.0537 47.5789 26.6305 48.2494C26.2003 48.476 26.0591 49.0334 26.3403 49.4367C26.6062 49.8214 26.6829 50.4594 26.3455 50.9578C22.7071 52.1959 18.3844 52.3386 15.2707 51.3309C14.7308 50.9106 14.6869 50.0991 14.9999 49.5951C15.2608 49.1788 15.0937 48.6275 14.6517 48.4237C14.202 47.7775 14.3265 46.8559 14.8489 46.3945C15.2951 46.0024 15.1509 45.1964 14.758 44.9063ZM18.0134 28.0315C19.6222 28.2111 21.2789 28.1229 22.8356 27.7998C22.3918 30.3775 21.9781 34.8029 21.603 40.944C20.9286 40.9613 20.2564 40.9637 19.585 40.9512C19.444 38.1737 19.0521 32.7931 18.0134 28.0315ZM18.8723 55.6541C18.6839 55.3592 18.4159 55.3556 16.9206 53.3886C19.398 53.7854 21.8344 53.6652 24.2663 53.1816C22.151 55.7141 22.3343 55.3015 22.1059 55.5882C21.1572 55.9071 20.0735 55.9305 18.8723 55.6541ZM12.4407 36.2515C12.0153 30.5047 9.08974 28.5955 6.91219 24.3366C4.37114 19.3693 4.78092 12.9138 7.93159 8.27285C11.0211 3.72117 16.7028 1.07967 22.0788 1.72596C27.4527 2.36268 32.3759 6.13307 34.6209 11.33C36.7442 16.2441 36.0878 22.6528 32.9493 27.6563C31.1083 30.5902 28.6173 33.3336 28.3567 37.0998C28.2744 38.2815 28.5258 39.8905 27.5491 40.4179C27.2021 40.4641 25.8822 40.7197 23.2431 40.8757C23.5078 36.5759 23.8482 31.5451 24.58 27.3246C27.8115 26.2204 30.7092 23.7596 31.0067 20.4365C31.3091 17.0616 28.6556 15.0632 26.1362 17.5622C24.1499 19.53 23.584 23.2463 23.1364 26.0512C21.3862 26.5008 19.4389 26.6124 17.6036 26.3233C16.6837 22.8325 14.3302 16.5242 10.8468 17.9215C10.0065 18.2585 9.45856 18.8824 9.26084 19.7275C8.84628 21.4995 10.1022 23.7339 10.9914 24.7256C12.3605 26.2553 14.2319 27.2311 16.276 27.7275C17.3764 32.4115 17.7948 37.9813 17.9468 40.8853C13.9602 40.6414 12.7877 40.977 12.4407 36.2515ZM24.8866 25.457C25.2953 22.977 25.8587 20.1357 27.2852 18.7219C27.6308 18.3781 28.2268 17.9205 28.6687 18.1277C29.0902 18.3265 29.4824 19.1514 29.3804 20.2909C29.1654 22.6953 27.039 24.534 24.8866 25.457ZM15.7913 25.8875C14.3982 25.4261 13.1482 24.6874 12.2074 23.6371C11.4841 22.8293 10.6183 21.0924 10.8505 20.0985C10.9255 19.7785 11.1115 19.5744 11.4538 19.4373C13.273 18.7126 15.2443 24.0327 15.7913 25.8875Z" fill="black"></path><path d="M0 62.9035C0 66.284 2.52212 69.0791 5.78141 69.5248C10.4031 71.3093 14.9173 67.816 14.9731 63.2282C15.005 60.6117 13.4604 58.051 11.1583 56.807C9.52516 55.9245 6.92896 55.4701 5.20959 56.3492C5.21929 56.3593 5.23444 56.3651 5.24467 56.3747C2.2492 57.0377 0 59.7106 0 62.9035ZM6.68986 57.8458C9.47859 57.8458 11.7475 60.1142 11.7475 62.9035C11.7475 65.6928 9.47859 67.9612 6.68986 67.9612C3.90113 67.9612 1.63274 65.6928 1.63274 62.9035C1.63274 60.1142 3.90113 57.8458 6.68986 57.8458Z" fill="black"></path><path d="M16.8574 66.304C33.5951 70.9426 50.6023 57.4655 49.6854 39.9708C49.6615 39.5201 49.2757 39.147 48.8276 39.198C48.3774 39.2214 48.0314 39.6062 48.0548 40.0559C48.9088 56.35 33.0386 69.087 17.2933 64.7308C16.8612 64.6075 16.4089 64.8637 16.2887 65.2995C16.1681 65.7343 16.4227 66.1839 16.8574 66.304Z" fill="black"></path><path d="M53.8527 37.8451C54.5064 37.8451 54.8949 37.1143 54.5319 36.5738C53.0862 34.419 51.6274 32.5234 50.1944 30.3873C49.9175 29.9759 49.2663 29.8548 48.8822 30.3278C47.2062 32.395 45.7182 34.4852 44.0738 36.5122C43.6426 37.044 44.0207 37.843 44.7079 37.843L53.8527 37.8451Z" fill="black"></path><path d="M54.5932 26.0614C53.2734 24.7504 51.9871 23.4555 50.7037 22.1613C51.8846 20.8945 53.0651 19.6272 54.2525 18.3622C54.5613 18.0327 54.5448 17.5161 54.2158 17.2078C53.8874 16.8995 53.3702 16.9144 53.062 17.244C51.887 18.4959 50.7193 19.7497 49.5515 21.0032C48.3071 19.7497 47.0642 18.4959 45.7853 17.2248C45.4654 16.9059 44.9488 16.9102 44.6309 17.2291C44.3131 17.548 44.3147 18.0656 44.6341 18.3835C45.9252 19.6662 47.18 20.9317 48.4361 22.1974C47.2327 23.4887 46.0299 24.7802 44.8196 26.0688C44.5113 26.3983 44.5273 26.9149 44.8563 27.2232C45.1838 27.5308 45.7014 27.5162 46.0102 27.1871C47.2074 25.9115 48.3977 24.6338 49.5883 23.3556C50.86 24.6375 52.1345 25.9208 53.442 27.22C53.7592 27.5351 54.2753 27.5384 54.5969 27.2158C54.9147 26.8958 54.9126 26.3792 54.5932 26.0614Z" fill="black"></path></svg>